<mxfile host="app.diagrams.net" modified="2021-01-22T04:17:20.360Z" agent="5.0 (Macintosh; Intel Mac OS X 11_1_0) AppleWebKit/537.36 (KHTML, like Gecko) Chrome/87.0.4280.141 Safari/537.36" etag="V6QBaKVBVmabDtdcxhXf" version="14.2.6" type="github">
  <diagram id="ac4Dt_KBg5GD50gWV8oC" name="第 1 页">
    <mxGraphModel dx="1188" dy="667" grid="1" gridSize="10" guides="1" tooltips="1" connect="1" arrows="1" fold="1" page="1" pageScale="1" pageWidth="1169" pageHeight="827" background="#F4F3E8" math="0" shadow="0">
      <root>
        <mxCell id="0" />
        <mxCell id="1" parent="0" />
        <mxCell id="qWEY_5Er5nwBZzaI58Md-27" value="" style="group;" vertex="1" connectable="0" parent="1">
          <mxGeometry x="100" y="30" width="430" height="241" as="geometry" />
        </mxCell>
        <mxCell id="qWEY_5Er5nwBZzaI58Md-10" value="&lt;span style=&quot;font-weight: 400; font-size: 16px;&quot;&gt;如何进行深度工作&lt;/span&gt;" style="shape=table;html=1;whiteSpace=wrap;startSize=45;container=1;collapsible=0;childLayout=tableLayout;fixedRows=1;rowLines=0;fontStyle=1;align=center;shadow=1;sketch=1;fontSize=16;swimlaneFillColor=none;fillColor=#FFFFFF;" vertex="1" parent="qWEY_5Er5nwBZzaI58Md-27">
          <mxGeometry y="-5.239130434782609" width="422.6605089627919" height="246.23913043478262" as="geometry" />
        </mxCell>
        <mxCell id="qWEY_5Er5nwBZzaI58Md-11" value="" style="shape=partialRectangle;html=1;whiteSpace=wrap;collapsible=0;dropTarget=0;pointerEvents=0;fillColor=none;top=0;left=0;bottom=1;right=0;points=[[0,0.5],[1,0.5]];portConstraint=eastwest;fontSize=16;" vertex="1" parent="qWEY_5Er5nwBZzaI58Md-10">
          <mxGeometry y="45" width="422.6605089627919" height="40" as="geometry" />
        </mxCell>
        <mxCell id="qWEY_5Er5nwBZzaI58Md-12" value="1" style="shape=partialRectangle;html=1;whiteSpace=wrap;connectable=0;fillColor=none;top=0;left=0;bottom=0;right=0;overflow=hidden;fontSize=16;" vertex="1" parent="qWEY_5Er5nwBZzaI58Md-11">
          <mxGeometry width="92" height="40" as="geometry" />
        </mxCell>
        <mxCell id="qWEY_5Er5nwBZzaI58Md-13" value="创建深度工作的习惯" style="shape=partialRectangle;html=1;whiteSpace=wrap;connectable=0;fillColor=none;top=0;left=0;bottom=0;right=0;align=left;spacingLeft=6;overflow=hidden;fontSize=16;" vertex="1" parent="qWEY_5Er5nwBZzaI58Md-11">
          <mxGeometry x="92" width="331" height="40" as="geometry" />
        </mxCell>
        <mxCell id="qWEY_5Er5nwBZzaI58Md-14" value="" style="shape=partialRectangle;html=1;whiteSpace=wrap;collapsible=0;dropTarget=0;pointerEvents=0;fillColor=none;top=0;left=0;bottom=0;right=0;points=[[0,0.5],[1,0.5]];portConstraint=eastwest;fontSize=16;" vertex="1" parent="qWEY_5Er5nwBZzaI58Md-10">
          <mxGeometry y="85" width="422.6605089627919" height="40" as="geometry" />
        </mxCell>
        <mxCell id="qWEY_5Er5nwBZzaI58Md-15" value="2" style="shape=partialRectangle;html=1;whiteSpace=wrap;connectable=0;fillColor=none;top=0;left=0;bottom=0;right=0;overflow=hidden;fontSize=16;" vertex="1" parent="qWEY_5Er5nwBZzaI58Md-14">
          <mxGeometry width="92" height="40" as="geometry" />
        </mxCell>
        <mxCell id="qWEY_5Er5nwBZzaI58Md-16" value="明确深度工作的停止" style="shape=partialRectangle;html=1;whiteSpace=wrap;connectable=0;fillColor=none;top=0;left=0;bottom=0;right=0;align=left;spacingLeft=6;overflow=hidden;fontSize=16;" vertex="1" parent="qWEY_5Er5nwBZzaI58Md-14">
          <mxGeometry x="92" width="331" height="40" as="geometry" />
        </mxCell>
        <mxCell id="qWEY_5Er5nwBZzaI58Md-20" value="" style="endArrow=none;html=1;fontSize=16;" edge="1" parent="qWEY_5Er5nwBZzaI58Md-27">
          <mxGeometry width="50" height="50" relative="1" as="geometry">
            <mxPoint y="118.09039855072464" as="sourcePoint" />
            <mxPoint x="423" y="118.09039855072464" as="targetPoint" />
          </mxGeometry>
        </mxCell>
        <mxCell id="qWEY_5Er5nwBZzaI58Md-21" value="" style="endArrow=none;html=1;entryX=1.006;entryY=1.067;entryDx=0;entryDy=0;entryPerimeter=0;fontSize=16;" edge="1" parent="qWEY_5Er5nwBZzaI58Md-27">
          <mxGeometry width="50" height="50" relative="1" as="geometry">
            <mxPoint y="157.2105263157895" as="sourcePoint" />
            <mxPoint x="423" y="157.76005263157893" as="targetPoint" />
          </mxGeometry>
        </mxCell>
        <mxCell id="qWEY_5Er5nwBZzaI58Md-23" value="谨慎选择网络工具" style="shape=partialRectangle;html=1;whiteSpace=wrap;connectable=0;fillColor=none;top=0;left=0;bottom=0;right=0;align=left;spacingLeft=6;overflow=hidden;fontSize=16;" vertex="1" parent="qWEY_5Er5nwBZzaI58Md-27">
          <mxGeometry x="92.21823930514513" y="160.3057894736842" width="328.2100280601177" height="38.05263157894738" as="geometry" />
        </mxCell>
        <mxCell id="qWEY_5Er5nwBZzaI58Md-24" value="" style="endArrow=none;html=1;entryX=1.006;entryY=1.067;entryDx=0;entryDy=0;entryPerimeter=0;fontSize=16;" edge="1" parent="qWEY_5Er5nwBZzaI58Md-27">
          <mxGeometry width="50" height="50" relative="1" as="geometry">
            <mxPoint y="198.0557368421053" as="sourcePoint" />
            <mxPoint x="423" y="198.60526315789474" as="targetPoint" />
          </mxGeometry>
        </mxCell>
        <mxCell id="qWEY_5Er5nwBZzaI58Md-26" value="提前做好时间规划" style="shape=partialRectangle;html=1;whiteSpace=wrap;connectable=0;fillColor=none;top=0;left=0;bottom=0;right=0;align=left;spacingLeft=6;overflow=hidden;fontSize=16;" vertex="1" parent="qWEY_5Er5nwBZzaI58Md-27">
          <mxGeometry x="92.79823930514513" y="201.33684210526317" width="328.2100280601177" height="38.05263157894738" as="geometry" />
        </mxCell>
        <mxCell id="qWEY_5Er5nwBZzaI58Md-33" value="训练注意力的高度集中" style="shape=partialRectangle;html=1;whiteSpace=wrap;connectable=0;fillColor=none;top=0;left=0;bottom=0;right=0;align=left;spacingLeft=6;overflow=hidden;fontSize=16;" vertex="1" parent="qWEY_5Er5nwBZzaI58Md-27">
          <mxGeometry x="91.02513866736493" y="119.38982608695653" width="328.58809246078033" height="41.913043478260875" as="geometry" />
        </mxCell>
        <mxCell id="qWEY_5Er5nwBZzaI58Md-28" value="3" style="shape=partialRectangle;html=1;whiteSpace=wrap;connectable=0;fillColor=none;top=0;left=0;bottom=0;right=0;overflow=hidden;fontSize=16;" vertex="1" parent="qWEY_5Er5nwBZzaI58Md-27">
          <mxGeometry x="-0.9962698934509717" y="117.96348283752855" width="94.44892893816336" height="38.05263157894738" as="geometry" />
        </mxCell>
        <mxCell id="qWEY_5Er5nwBZzaI58Md-22" value="4" style="shape=partialRectangle;html=1;whiteSpace=wrap;connectable=0;fillColor=none;top=0;left=0;bottom=0;right=0;overflow=hidden;fontSize=16;" vertex="1" parent="qWEY_5Er5nwBZzaI58Md-27">
          <mxGeometry x="-0.9970507156949395" y="160.3105263157895" width="94.44892893816336" height="38.05263157894738" as="geometry" />
        </mxCell>
        <mxCell id="qWEY_5Er5nwBZzaI58Md-25" value="5" style="shape=partialRectangle;html=1;whiteSpace=wrap;connectable=0;fillColor=none;top=0;left=0;bottom=0;right=0;overflow=hidden;fontSize=16;" vertex="1" parent="qWEY_5Er5nwBZzaI58Md-27">
          <mxGeometry x="0.0029492843050604733" y="201.36684210526312" width="94.44892893816336" height="38.05263157894738" as="geometry" />
        </mxCell>
        <mxCell id="qWEY_5Er5nwBZzaI58Md-41" value="" style="group" vertex="1" connectable="0" parent="1">
          <mxGeometry x="130" y="540" width="230" height="40" as="geometry" />
        </mxCell>
        <mxCell id="qWEY_5Er5nwBZzaI58Md-1" value="&lt;meta charset=&quot;utf-8&quot;&gt;&lt;span style=&quot;color: rgb(0, 0, 0); font-family: helvetica; font-size: 16px; font-style: normal; font-weight: 400; letter-spacing: normal; text-align: left; text-indent: 0px; text-transform: none; word-spacing: 0px; background-color: rgb(248, 249, 250); display: inline; float: none;&quot;&gt;创建深度工作的习惯&lt;/span&gt;" style="whiteSpace=wrap;html=1;sketch=1;" vertex="1" parent="qWEY_5Er5nwBZzaI58Md-41">
          <mxGeometry x="50" width="180" height="40" as="geometry" />
        </mxCell>
        <mxCell id="qWEY_5Er5nwBZzaI58Md-5" value="" style="triangle;html=1;whiteSpace=wrap;sketch=1;shadow=1;fillStyle=solid;fillColor=#FF0000;" vertex="1" parent="qWEY_5Er5nwBZzaI58Md-41">
          <mxGeometry y="5" width="26" height="30" as="geometry" />
        </mxCell>
        <mxCell id="qWEY_5Er5nwBZzaI58Md-42" value="" style="group" vertex="1" connectable="0" parent="1">
          <mxGeometry x="608" y="16" width="230" height="40" as="geometry" />
        </mxCell>
        <mxCell id="qWEY_5Er5nwBZzaI58Md-43" value="&lt;span style=&quot;color: rgb(0 , 0 , 0) ; font-family: &amp;#34;helvetica&amp;#34; ; font-size: 16px ; font-style: normal ; font-weight: 400 ; letter-spacing: normal ; text-align: left ; text-indent: 0px ; text-transform: none ; word-spacing: 0px ; background-color: rgb(248 , 249 , 250) ; display: inline ; float: none&quot;&gt;明确深度工作的停止&lt;/span&gt;" style="whiteSpace=wrap;html=1;sketch=1;" vertex="1" parent="qWEY_5Er5nwBZzaI58Md-42">
          <mxGeometry x="50" width="180" height="40" as="geometry" />
        </mxCell>
        <mxCell id="qWEY_5Er5nwBZzaI58Md-44" value="" style="triangle;html=1;whiteSpace=wrap;sketch=1;shadow=1;fillStyle=solid;fillColor=#FF0000;" vertex="1" parent="qWEY_5Er5nwBZzaI58Md-42">
          <mxGeometry y="5" width="26" height="30" as="geometry" />
        </mxCell>
        <mxCell id="qWEY_5Er5nwBZzaI58Md-45" value="" style="group" vertex="1" connectable="0" parent="1">
          <mxGeometry x="608" y="86" width="230" height="40" as="geometry" />
        </mxCell>
        <mxCell id="qWEY_5Er5nwBZzaI58Md-46" value="&lt;span style=&quot;font-size: 16px ; text-align: left&quot;&gt;训练注意力的高度集中&lt;/span&gt;" style="whiteSpace=wrap;html=1;sketch=1;" vertex="1" parent="qWEY_5Er5nwBZzaI58Md-45">
          <mxGeometry x="50" width="180" height="40" as="geometry" />
        </mxCell>
        <mxCell id="qWEY_5Er5nwBZzaI58Md-47" value="" style="triangle;html=1;whiteSpace=wrap;sketch=1;shadow=1;fillStyle=solid;fillColor=#FF0000;" vertex="1" parent="qWEY_5Er5nwBZzaI58Md-45">
          <mxGeometry y="5" width="26" height="30" as="geometry" />
        </mxCell>
        <mxCell id="qWEY_5Er5nwBZzaI58Md-48" value="" style="group" vertex="1" connectable="0" parent="1">
          <mxGeometry x="608" y="156" width="230" height="40" as="geometry" />
        </mxCell>
        <mxCell id="qWEY_5Er5nwBZzaI58Md-49" value="&lt;span style=&quot;font-size: 16px ; text-align: left&quot;&gt;谨慎选择网络工具&lt;/span&gt;" style="whiteSpace=wrap;html=1;sketch=1;" vertex="1" parent="qWEY_5Er5nwBZzaI58Md-48">
          <mxGeometry x="50" width="180" height="40" as="geometry" />
        </mxCell>
        <mxCell id="qWEY_5Er5nwBZzaI58Md-50" value="" style="triangle;html=1;whiteSpace=wrap;sketch=1;shadow=1;fillStyle=solid;fillColor=#FF0000;" vertex="1" parent="qWEY_5Er5nwBZzaI58Md-48">
          <mxGeometry y="5" width="26" height="30" as="geometry" />
        </mxCell>
        <mxCell id="qWEY_5Er5nwBZzaI58Md-51" value="" style="group" vertex="1" connectable="0" parent="1">
          <mxGeometry x="608" y="226" width="230" height="40" as="geometry" />
        </mxCell>
        <mxCell id="qWEY_5Er5nwBZzaI58Md-52" value="&lt;span style=&quot;font-size: 16px ; text-align: left&quot;&gt;提前做好时间规划&lt;/span&gt;" style="whiteSpace=wrap;html=1;sketch=1;" vertex="1" parent="qWEY_5Er5nwBZzaI58Md-51">
          <mxGeometry x="50" width="180" height="40" as="geometry" />
        </mxCell>
        <mxCell id="qWEY_5Er5nwBZzaI58Md-53" value="" style="triangle;html=1;whiteSpace=wrap;sketch=1;shadow=1;fillStyle=solid;fillColor=#FF0000;" vertex="1" parent="qWEY_5Er5nwBZzaI58Md-51">
          <mxGeometry y="5" width="26" height="30" as="geometry" />
        </mxCell>
        <mxCell id="qWEY_5Er5nwBZzaI58Md-61" value="" style="group" vertex="1" connectable="0" parent="1">
          <mxGeometry x="380" y="420" width="390" height="280" as="geometry" />
        </mxCell>
        <mxCell id="qWEY_5Er5nwBZzaI58Md-54" value="" style="shape=curlyBracket;whiteSpace=wrap;html=1;rounded=1;shadow=1;sketch=1;fillColor=#FF0000;fontSize=16;direction=east;" vertex="1" parent="qWEY_5Er5nwBZzaI58Md-61">
          <mxGeometry x="-5" y="17.08" width="26.55" height="260.92" as="geometry" />
        </mxCell>
        <mxCell id="qWEY_5Er5nwBZzaI58Md-56" value="" style="whiteSpace=wrap;html=1;shadow=0;sketch=1;fontSize=16;rounded=1;glass=1;fillStyle=hachure;fillColor=#C2E4FF;" vertex="1" parent="qWEY_5Er5nwBZzaI58Md-61">
          <mxGeometry x="42.48" y="-87" width="327.52" height="128.35" as="geometry" />
        </mxCell>
        <mxCell id="qWEY_5Er5nwBZzaI58Md-72" value="" style="group" vertex="1" connectable="0" parent="qWEY_5Er5nwBZzaI58Md-61">
          <mxGeometry x="218" y="-23.34" width="129" height="45" as="geometry" />
        </mxCell>
        <mxCell id="qWEY_5Er5nwBZzaI58Md-73" value="" style="group" vertex="1" connectable="0" parent="qWEY_5Er5nwBZzaI58Md-72">
          <mxGeometry width="129" height="45" as="geometry" />
        </mxCell>
        <mxCell id="qWEY_5Er5nwBZzaI58Md-74" value="" style="ellipse;whiteSpace=wrap;html=1;strokeWidth=2;fillWeight=2;hachureGap=8;fillStyle=dots;sketch=1;rounded=1;shadow=0;glass=1;fontSize=16;fillColor=#C4D0BF;" vertex="1" parent="qWEY_5Er5nwBZzaI58Md-73">
          <mxGeometry width="129" height="45" as="geometry" />
        </mxCell>
        <mxCell id="qWEY_5Er5nwBZzaI58Md-80" value="" style="shape=image;html=1;verticalAlign=top;verticalLabelPosition=bottom;labelBackgroundColor=#ffffff;imageAspect=0;aspect=fixed;image=https://cdn0.iconfinder.com/data/icons/job-seeker/256/front_office_job_seeker_employee_unemployee_work-128.png;rounded=1;shadow=0;glass=1;sketch=1;fillColor=#C4D0BF;fontSize=16;" vertex="1" parent="qWEY_5Er5nwBZzaI58Md-73">
          <mxGeometry x="30" y="8.5" width="28" height="28" as="geometry" />
        </mxCell>
        <mxCell id="qWEY_5Er5nwBZzaI58Md-81" value="" style="shape=image;html=1;verticalAlign=top;verticalLabelPosition=bottom;labelBackgroundColor=#ffffff;imageAspect=0;aspect=fixed;image=https://cdn4.iconfinder.com/data/icons/business-and-finance-colorful-free-hand-drawn-set/100/money_dollars-128.png;rounded=1;shadow=0;glass=1;sketch=1;fillColor=#C4D0BF;fontSize=16;" vertex="1" parent="qWEY_5Er5nwBZzaI58Md-73">
          <mxGeometry x="71" y="8.5" width="28" height="28" as="geometry" />
        </mxCell>
        <mxCell id="qWEY_5Er5nwBZzaI58Md-78" value="&lt;font style=&quot;font-size: 12px&quot;&gt;外部环境&lt;/font&gt;" style="text;html=1;strokeColor=none;fillColor=none;align=center;verticalAlign=middle;whiteSpace=wrap;rounded=0;shadow=0;glass=1;sketch=1;fontSize=16;" vertex="1" parent="qWEY_5Er5nwBZzaI58Md-61">
          <mxGeometry x="243" y="-47.34" width="79" height="20" as="geometry" />
        </mxCell>
        <mxCell id="qWEY_5Er5nwBZzaI58Md-70" value="" style="group" vertex="1" connectable="0" parent="qWEY_5Er5nwBZzaI58Md-61">
          <mxGeometry x="65" y="-48.92" width="129" height="72" as="geometry" />
        </mxCell>
        <mxCell id="qWEY_5Er5nwBZzaI58Md-67" value="" style="group" vertex="1" connectable="0" parent="qWEY_5Er5nwBZzaI58Md-70">
          <mxGeometry y="27" width="129" height="45" as="geometry" />
        </mxCell>
        <mxCell id="qWEY_5Er5nwBZzaI58Md-66" value="" style="group" vertex="1" connectable="0" parent="qWEY_5Er5nwBZzaI58Md-67">
          <mxGeometry width="129" height="45" as="geometry" />
        </mxCell>
        <mxCell id="qWEY_5Er5nwBZzaI58Md-59" value="" style="ellipse;whiteSpace=wrap;html=1;strokeWidth=2;fillWeight=2;hachureGap=8;fillStyle=dots;sketch=1;rounded=1;shadow=0;glass=1;fontSize=16;fillColor=#FFDAD9;" vertex="1" parent="qWEY_5Er5nwBZzaI58Md-66">
          <mxGeometry width="129" height="45" as="geometry" />
        </mxCell>
        <mxCell id="qWEY_5Er5nwBZzaI58Md-62" value="" style="shape=image;html=1;verticalAlign=top;verticalLabelPosition=bottom;labelBackgroundColor=#ffffff;imageAspect=0;aspect=fixed;image=https://cdn2.iconfinder.com/data/icons/artificial-intelligence-6/64/ArtificialIntelligence1-128.png;rounded=1;shadow=0;glass=1;sketch=1;fillColor=#C4D0BF;fontSize=16;" vertex="1" parent="qWEY_5Er5nwBZzaI58Md-67">
          <mxGeometry x="13" y="8.689999999999998" width="27.63" height="27.63" as="geometry" />
        </mxCell>
        <mxCell id="qWEY_5Er5nwBZzaI58Md-63" value="" style="shape=image;html=1;verticalAlign=top;verticalLabelPosition=bottom;labelBackgroundColor=#ffffff;imageAspect=0;image=https://cdn3.iconfinder.com/data/icons/travelling-icon-set-ii-part/800/slippers-128.png;rounded=1;shadow=0;glass=1;sketch=1;fillColor=#C4D0BF;fontSize=16;aspect=fixed;" vertex="1" parent="qWEY_5Er5nwBZzaI58Md-67">
          <mxGeometry x="47.680000000000064" y="8.689999999999998" width="27.63" height="27.63" as="geometry" />
        </mxCell>
        <mxCell id="qWEY_5Er5nwBZzaI58Md-65" value="" style="shape=image;html=1;verticalAlign=top;verticalLabelPosition=bottom;labelBackgroundColor=#ffffff;imageAspect=0;aspect=fixed;image=https://cdn0.iconfinder.com/data/icons/infectious-pandemics-2/480/07-healthy-128.png;rounded=1;shadow=0;glass=1;sketch=1;fillColor=#C4D0BF;fontSize=16;" vertex="1" parent="qWEY_5Er5nwBZzaI58Md-67">
          <mxGeometry x="84" y="8.689999999999998" width="27.63" height="27.63" as="geometry" />
        </mxCell>
        <mxCell id="qWEY_5Er5nwBZzaI58Md-69" value="&lt;font style=&quot;font-size: 12px&quot;&gt;内部环境&lt;/font&gt;" style="text;html=1;strokeColor=none;fillColor=none;align=center;verticalAlign=middle;whiteSpace=wrap;rounded=0;shadow=0;glass=1;sketch=1;fontSize=16;" vertex="1" parent="qWEY_5Er5nwBZzaI58Md-70">
          <mxGeometry x="25" width="79" height="20" as="geometry" />
        </mxCell>
        <mxCell id="qWEY_5Er5nwBZzaI58Md-92" value="" style="whiteSpace=wrap;html=1;shadow=0;sketch=1;fontSize=16;rounded=1;glass=1;fillStyle=hachure;fillColor=#C2E4FF;" vertex="1" parent="qWEY_5Er5nwBZzaI58Md-61">
          <mxGeometry x="41" y="83.37" width="327.52" height="128.35" as="geometry" />
        </mxCell>
        <mxCell id="qWEY_5Er5nwBZzaI58Md-93" value="" style="shape=image;html=1;verticalAlign=top;verticalLabelPosition=bottom;labelBackgroundColor=#ffffff;imageAspect=0;aspect=fixed;image=https://cdn0.iconfinder.com/data/icons/business-collection-2027/60/time-passing-128.png;rounded=0;shadow=0;glass=0;sketch=1;fillColor=none;gradientColor=none;fontSize=16;fontColor=#000000;" vertex="1" parent="qWEY_5Er5nwBZzaI58Md-61">
          <mxGeometry x="109.5" y="154" width="40" height="40" as="geometry" />
        </mxCell>
        <mxCell id="qWEY_5Er5nwBZzaI58Md-94" value="&lt;font style=&quot;font-size: 16px&quot;&gt;制定目标&lt;br&gt;&lt;/font&gt;" style="text;html=1;strokeColor=none;fillColor=none;align=center;verticalAlign=middle;whiteSpace=wrap;rounded=0;shadow=0;glass=1;sketch=1;fontSize=16;" vertex="1" parent="qWEY_5Er5nwBZzaI58Md-61">
          <mxGeometry x="170" y="100" width="79" height="20" as="geometry" />
        </mxCell>
        <mxCell id="qWEY_5Er5nwBZzaI58Md-95" value="&lt;font style=&quot;font-size: 12px&quot;&gt;固定工作时长&lt;/font&gt;" style="text;html=1;strokeColor=none;fillColor=none;align=center;verticalAlign=middle;whiteSpace=wrap;rounded=0;shadow=0;glass=1;sketch=1;fontSize=16;" vertex="1" parent="qWEY_5Er5nwBZzaI58Md-61">
          <mxGeometry x="90" y="125.99999999999994" width="79" height="20" as="geometry" />
        </mxCell>
        <mxCell id="qWEY_5Er5nwBZzaI58Md-97" value="&lt;font style=&quot;font-size: 12px&quot;&gt;预期工作成果&lt;/font&gt;" style="text;html=1;strokeColor=none;fillColor=none;align=center;verticalAlign=middle;whiteSpace=wrap;rounded=0;shadow=0;glass=1;sketch=1;fontSize=16;" vertex="1" parent="qWEY_5Er5nwBZzaI58Md-61">
          <mxGeometry x="243" y="127" width="79" height="20" as="geometry" />
        </mxCell>
        <mxCell id="qWEY_5Er5nwBZzaI58Md-105" value="" style="shape=image;html=1;verticalAlign=top;verticalLabelPosition=bottom;labelBackgroundColor=#ffffff;imageAspect=0;aspect=fixed;image=https://cdn0.iconfinder.com/data/icons/web-development-79/32/development_computer_website_check_result-128.png;rounded=0;shadow=0;glass=0;sketch=1;fillColor=none;gradientColor=none;fontSize=16;fontColor=#000000;" vertex="1" parent="qWEY_5Er5nwBZzaI58Md-61">
          <mxGeometry x="262.5" y="153" width="40" height="40" as="geometry" />
        </mxCell>
        <mxCell id="qWEY_5Er5nwBZzaI58Md-90" value="&lt;font style=&quot;font-size: 16px&quot;&gt;专属环境&lt;/font&gt;" style="text;html=1;strokeColor=none;fillColor=none;align=center;verticalAlign=middle;whiteSpace=wrap;rounded=0;shadow=0;glass=1;sketch=1;fontSize=16;" vertex="1" parent="1">
          <mxGeometry x="545.74" y="351" width="79" height="20" as="geometry" />
        </mxCell>
        <mxCell id="qWEY_5Er5nwBZzaI58Md-100" value="" style="whiteSpace=wrap;html=1;shadow=0;sketch=1;fontSize=16;rounded=1;glass=1;fillStyle=hachure;fillColor=#C2E4FF;" vertex="1" parent="1">
          <mxGeometry x="421.48" y="670" width="327.52" height="128.35" as="geometry" />
        </mxCell>
        <mxCell id="qWEY_5Er5nwBZzaI58Md-101" value="&lt;font style=&quot;font-size: 16px&quot;&gt;正向反馈&lt;br&gt;&lt;/font&gt;" style="text;html=1;strokeColor=none;fillColor=none;align=center;verticalAlign=middle;whiteSpace=wrap;rounded=0;shadow=0;glass=1;sketch=1;fontSize=16;" vertex="1" parent="1">
          <mxGeometry x="547.74" y="685" width="79" height="20" as="geometry" />
        </mxCell>
        <mxCell id="qWEY_5Er5nwBZzaI58Md-103" value="" style="shape=image;html=1;verticalAlign=top;verticalLabelPosition=bottom;labelBackgroundColor=#ffffff;imageAspect=0;aspect=fixed;image=https://cdn4.iconfinder.com/data/icons/miu/24/circle-sync-backup-2-glyph-128.png;rounded=0;shadow=0;glass=0;sketch=1;fillColor=none;gradientColor=none;fontSize=16;fontColor=#33333333;dashed=1;dashPattern=1 1;" vertex="1" parent="1">
          <mxGeometry x="567.24" y="733" width="50" height="50" as="geometry" />
        </mxCell>
        <mxCell id="qWEY_5Er5nwBZzaI58Md-104" value="" style="shape=image;html=1;verticalAlign=top;verticalLabelPosition=bottom;labelBackgroundColor=#ffffff;imageAspect=0;aspect=fixed;image=https://cdn0.iconfinder.com/data/icons/pinpoint-interface/48/repair-calendar-128.png;rounded=0;shadow=0;glass=0;sketch=1;fillColor=none;gradientColor=none;fontSize=16;fontColor=#000000;" vertex="1" parent="1">
          <mxGeometry x="664" y="735" width="50" height="50" as="geometry" />
        </mxCell>
        <mxCell id="qWEY_5Er5nwBZzaI58Md-108" value="" style="shape=image;html=1;verticalAlign=top;verticalLabelPosition=bottom;labelBackgroundColor=#ffffff;imageAspect=0;aspect=fixed;image=https://cdn0.iconfinder.com/data/icons/infographic-bar-vol-9/512/1-128.png;rounded=0;shadow=0;glass=0;dashed=1;dashPattern=1 1;sketch=1;fillColor=none;gradientColor=none;fontSize=16;fontColor=#000000;" vertex="1" parent="1">
          <mxGeometry x="442" y="732" width="40" height="40" as="geometry" />
        </mxCell>
        <mxCell id="qWEY_5Er5nwBZzaI58Md-109" value="&lt;span style=&quot;font-size: 12px&quot;&gt;衡量结果&lt;/span&gt;" style="text;html=1;strokeColor=none;fillColor=none;align=center;verticalAlign=middle;whiteSpace=wrap;rounded=0;shadow=0;glass=1;sketch=1;fontSize=16;" vertex="1" parent="1">
          <mxGeometry x="451.5" y="710" width="79" height="20" as="geometry" />
        </mxCell>
        <mxCell id="qWEY_5Er5nwBZzaI58Md-110" value="" style="shape=image;html=1;verticalAlign=top;verticalLabelPosition=bottom;labelBackgroundColor=#ffffff;imageAspect=0;aspect=fixed;image=https://cdn4.iconfinder.com/data/icons/online-marketing-hand-drawn-vol-1/52/bar__barchart__business__graph__report__analytics__diagram-128.png;rounded=0;shadow=0;glass=0;dashed=1;dashPattern=1 1;sketch=1;fillColor=none;gradientColor=none;fontSize=16;fontColor=#000000;" vertex="1" parent="1">
          <mxGeometry x="501.5" y="735" width="30" height="30" as="geometry" />
        </mxCell>
        <mxCell id="qWEY_5Er5nwBZzaI58Md-111" value="&lt;span style=&quot;font-size: 10px;&quot;&gt;滞后性指标&lt;/span&gt;" style="text;html=1;strokeColor=none;fillColor=none;align=center;verticalAlign=middle;whiteSpace=wrap;rounded=0;shadow=0;glass=1;sketch=1;fontSize=10;" vertex="1" parent="1">
          <mxGeometry x="422.5" y="767" width="79" height="20" as="geometry" />
        </mxCell>
        <mxCell id="qWEY_5Er5nwBZzaI58Md-112" value="&lt;span style=&quot;font-size: 10px;&quot;&gt;引领性指标&lt;/span&gt;" style="text;html=1;strokeColor=none;fillColor=none;align=center;verticalAlign=middle;whiteSpace=wrap;rounded=0;shadow=0;glass=1;sketch=1;fontSize=10;" vertex="1" parent="1">
          <mxGeometry x="477" y="767" width="79" height="20" as="geometry" />
        </mxCell>
        <mxCell id="qWEY_5Er5nwBZzaI58Md-113" value="&lt;span style=&quot;font-size: 12px&quot;&gt;建立正向反馈&lt;/span&gt;" style="text;html=1;strokeColor=none;fillColor=none;align=center;verticalAlign=middle;whiteSpace=wrap;rounded=0;shadow=0;glass=1;sketch=1;fontSize=16;" vertex="1" parent="1">
          <mxGeometry x="553.74" y="710" width="79" height="20" as="geometry" />
        </mxCell>
        <mxCell id="qWEY_5Er5nwBZzaI58Md-114" value="&lt;span style=&quot;font-size: 12px&quot;&gt;定期回顾并调整&lt;br&gt;&lt;/span&gt;" style="text;html=1;strokeColor=none;fillColor=none;align=center;verticalAlign=middle;whiteSpace=wrap;rounded=0;shadow=0;glass=1;sketch=1;fontSize=16;" vertex="1" parent="1">
          <mxGeometry x="644" y="710" width="90" height="20" as="geometry" />
        </mxCell>
      </root>
    </mxGraphModel>
  </diagram>
</mxfile>
